<svg width="24" height="24" viewBox="0 0 24 24" fill="none" xmlns="http://www.w3.org/2000/svg">
<g id="Iconly/Light-outline/Arrow - Right">
<g id="Arrow - Right">
<path id="Arrow - Right_2" fill-rule="evenodd" clip-rule="evenodd" d="M6.47144 11.4514C6.2052 11.4881 6 11.7197 6 11.9999C6 12.3056 6.24421 12.5535 6.54545 12.5535H16.1333L12.6698 16.0542L12.6169 16.1162C12.458 16.3326 12.475 16.6401 12.6682 16.8371C12.8808 17.0537 13.2262 17.0544 13.4396 16.8387L17.8331 12.3984C17.8547 12.3773 17.8746 12.3544 17.8925 12.3299L17.8927 12.3297C18.0519 12.1126 18.0342 11.8041 17.8396 11.6074L13.4396 7.16129L13.3783 7.10782C13.1644 6.9475 12.8614 6.96603 12.6682 7.16297C12.4557 7.37961 12.4564 7.7301 12.6699 7.9458L16.1342 11.4464H6.54545L6.47144 11.4514Z" fill="#130F26"/>
</g>
</g>
</svg>
